<svg width="768" height="257" viewBox="0 0 768 257" fill="none" xmlns="http://www.w3.org/2000/svg">
<g opacity="0.3" clip-path="url(#clip0_472_2018)">
<path d="M192 2C192 0.89543 191.105 0 190 0C188.895 0 188 0.89543 188 2V135C188 136.105 188.895 137 190 137C191.105 137 192 136.105 192 135V2Z" fill="url(#paint0_linear_472_2018)"/>
<path d="M202 12C202 10.8954 201.105 10 200 10C198.895 10 198 10.8954 198 12V145C198 146.105 198.895 147 200 147C201.105 147 202 146.105 202 145V12Z" fill="url(#paint1_linear_472_2018)"/>
<path d="M182 12C182 10.8954 181.105 10 180 10C178.895 10 178 10.8954 178 12V145C178 146.105 178.895 147 180 147C181.105 147 182 146.105 182 145V12Z" fill="url(#paint2_linear_472_2018)"/>
<path d="M212 22C212 20.8954 211.105 20 210 20C208.895 20 208 20.8954 208 22V155C208 156.105 208.895 157 210 157C211.105 157 212 156.105 212 155V22Z" fill="url(#paint3_linear_472_2018)"/>
<path d="M172 22C172 20.8954 171.105 20 170 20C168.895 20 168 20.8954 168 22V155C168 156.105 168.895 157 170 157C171.105 157 172 156.105 172 155V22Z" fill="url(#paint4_linear_472_2018)"/>
<path d="M162 12C162 10.8954 161.105 10 160 10C158.895 10 158 10.8954 158 12V145C158 146.105 158.895 147 160 147C161.105 147 162 146.105 162 145V12Z" fill="url(#paint5_linear_472_2018)"/>
<path d="M152 22C152 20.8954 151.105 20 150 20C148.895 20 148 20.8954 148 22V155C148 156.105 148.895 157 150 157C151.105 157 152 156.105 152 155V22Z" fill="url(#paint6_linear_472_2018)"/>
<path d="M142 32C142 30.8954 141.105 30 140 30C138.895 30 138 30.8954 138 32V165C138 166.105 138.895 167 140 167C141.105 167 142 166.105 142 165V32Z" fill="url(#paint7_linear_472_2018)"/>
<path d="M132 42C132 40.8954 131.105 40 130 40C128.895 40 128 40.8954 128 42V175C128 176.105 128.895 177 130 177C131.105 177 132 176.105 132 175V42Z" fill="url(#paint8_linear_472_2018)"/>
<path d="M122 32C122 30.8954 121.105 30 120 30C118.895 30 118 30.8954 118 32V165C118 166.105 118.895 167 120 167C121.105 167 122 166.105 122 165V32Z" fill="url(#paint9_linear_472_2018)"/>
<path d="M112 42C112 40.8954 111.105 40 110 40C108.895 40 108 40.8954 108 42V175C108 176.105 108.895 177 110 177C111.105 177 112 176.105 112 175V42Z" fill="url(#paint10_linear_472_2018)"/>
<path d="M102 52C102 50.8954 101.105 50 100 50C98.8954 50 98 50.8954 98 52V185C98 186.105 98.8954 187 100 187C101.105 187 102 186.105 102 185V52Z" fill="url(#paint11_linear_472_2018)"/>
<path d="M92 62C92 60.8954 91.1046 60 90 60C88.8954 60 88 60.8954 88 62V195C88 196.105 88.8954 197 90 197C91.1046 197 92 196.105 92 195V62Z" fill="url(#paint12_linear_472_2018)"/>
<path d="M82 72C82 70.8954 81.1046 70 80 70C78.8954 70 78 70.8954 78 72V205C78 206.105 78.8954 207 80 207C81.1046 207 82 206.105 82 205V72Z" fill="url(#paint13_linear_472_2018)"/>
<path d="M72 62C72 60.8954 71.1046 60 70 60C68.8954 60 68 60.8954 68 62V195C68 196.105 68.8954 197 70 197C71.1046 197 72 196.105 72 195V62Z" fill="url(#paint14_linear_472_2018)"/>
<path d="M62 52C62 50.8954 61.1046 50 60 50C58.8954 50 58 50.8954 58 52V185C58 186.105 58.8954 187 60 187C61.1046 187 62 186.105 62 185V52Z" fill="url(#paint15_linear_472_2018)"/>
<path d="M52 62C52 60.8954 51.1046 60 50 60C48.8954 60 48 60.8954 48 62V195C48 196.105 48.8954 197 50 197C51.1046 197 52 196.105 52 195V62Z" fill="url(#paint16_linear_472_2018)"/>
<path d="M42 52C42 50.8954 41.1046 50 40 50C38.8954 50 38 50.8954 38 52V185C38 186.105 38.8954 187 40 187C41.1046 187 42 186.105 42 185V52Z" fill="url(#paint17_linear_472_2018)"/>
<path d="M32 42C32 40.8954 31.1046 40 30 40C28.8954 40 28 40.8954 28 42V175C28 176.105 28.8954 177 30 177C31.1046 177 32 176.105 32 175V42Z" fill="url(#paint18_linear_472_2018)"/>
<path d="M22 32C22 30.8954 21.1046 30 20 30C18.8954 30 18 30.8954 18 32V165C18 166.105 18.8954 167 20 167C21.1046 167 22 166.105 22 165V32Z" fill="url(#paint19_linear_472_2018)"/>
<path d="M12 42C12 40.8954 11.1046 40 10 40C8.89543 40 8 40.8954 8 42V175C8 176.105 8.89543 177 10 177C11.1046 177 12 176.105 12 175V42Z" fill="url(#paint20_linear_472_2018)"/>
<path d="M2 52C2 50.8954 1.10457 50 0 50C-1.10457 50 -2 50.8954 -2 52V185C-2 186.105 -1.10457 187 0 187C1.10457 187 2 186.105 2 185V52Z" fill="url(#paint21_linear_472_2018)"/>
<path d="M412 22C412 20.8954 411.105 20 410 20C408.895 20 408 20.8954 408 22V155C408 156.105 408.895 157 410 157C411.105 157 412 156.105 412 155V22Z" fill="url(#paint22_linear_472_2018)"/>
<path d="M422 32C422 30.8954 421.105 30 420 30C418.895 30 418 30.8954 418 32V165C418 166.105 418.895 167 420 167C421.105 167 422 166.105 422 165V32Z" fill="url(#paint23_linear_472_2018)"/>
<path d="M402 22C402 20.8954 401.105 20 400 20C398.895 20 398 20.8954 398 22V155C398 156.105 398.895 157 400 157C401.105 157 402 156.105 402 155V22Z" fill="url(#paint24_linear_472_2018)"/>
<path d="M432 42C432 40.8954 431.105 40 430 40C428.895 40 428 40.8954 428 42V175C428 176.105 428.895 177 430 177C431.105 177 432 176.105 432 175V42Z" fill="url(#paint25_linear_472_2018)"/>
<path d="M392 32C392 30.8954 391.105 30 390 30C388.895 30 388 30.8954 388 32V165C388 166.105 388.895 167 390 167C391.105 167 392 166.105 392 165V32Z" fill="url(#paint26_linear_472_2018)"/>
<path d="M382 22C382 20.8954 381.105 20 380 20C378.895 20 378 20.8954 378 22V155C378 156.105 378.895 157 380 157C381.105 157 382 156.105 382 155V22Z" fill="url(#paint27_linear_472_2018)"/>
<path d="M372 32C372 30.8954 371.105 30 370 30C368.895 30 368 30.8954 368 32V165C368 166.105 368.895 167 370 167C371.105 167 372 166.105 372 165V32Z" fill="url(#paint28_linear_472_2018)"/>
<path d="M362 42C362 40.8954 361.105 40 360 40C358.895 40 358 40.8954 358 42V175C358 176.105 358.895 177 360 177C361.105 177 362 176.105 362 175V42Z" fill="url(#paint29_linear_472_2018)"/>
<path d="M352 42C352 40.8954 351.105 40 350 40C348.895 40 348 40.8954 348 42V175C348 176.105 348.895 177 350 177C351.105 177 352 176.105 352 175V42Z" fill="url(#paint30_linear_472_2018)"/>
<path d="M342 32C342 30.8954 341.105 30 340 30C338.895 30 338 30.8954 338 32V165C338 166.105 338.895 167 340 167C341.105 167 342 166.105 342 165V32Z" fill="url(#paint31_linear_472_2018)"/>
<path d="M332 42C332 40.8954 331.105 40 330 40C328.895 40 328 40.8954 328 42V175C328 176.105 328.895 177 330 177C331.105 177 332 176.105 332 175V42Z" fill="url(#paint32_linear_472_2018)"/>
<path d="M322 52C322 50.8954 321.105 50 320 50C318.895 50 318 50.8954 318 52V185C318 186.105 318.895 187 320 187C321.105 187 322 186.105 322 185V52Z" fill="url(#paint33_linear_472_2018)"/>
<path d="M312 52C312 50.8954 311.105 50 310 50C308.895 50 308 50.8954 308 52V185C308 186.105 308.895 187 310 187C311.105 187 312 186.105 312 185V52Z" fill="url(#paint34_linear_472_2018)"/>
<path d="M302 62C302 60.8954 301.105 60 300 60C298.895 60 298 60.8954 298 62V195C298 196.105 298.895 197 300 197C301.105 197 302 196.105 302 195V62Z" fill="url(#paint35_linear_472_2018)"/>
<path d="M292 52C292 50.8954 291.105 50 290 50C288.895 50 288 50.8954 288 52V185C288 186.105 288.895 187 290 187C291.105 187 292 186.105 292 185V52Z" fill="url(#paint36_linear_472_2018)"/>
<path d="M282 42C282 40.8954 281.105 40 280 40C278.895 40 278 40.8954 278 42V175C278 176.105 278.895 177 280 177C281.105 177 282 176.105 282 175V42Z" fill="url(#paint37_linear_472_2018)"/>
<path d="M272 52C272 50.8954 271.105 50 270 50C268.895 50 268 50.8954 268 52V185C268 186.105 268.895 187 270 187C271.105 187 272 186.105 272 185V52Z" fill="url(#paint38_linear_472_2018)"/>
<path d="M262 42C262 40.8954 261.105 40 260 40C258.895 40 258 40.8954 258 42V175C258 176.105 258.895 177 260 177C261.105 177 262 176.105 262 175V42Z" fill="url(#paint39_linear_472_2018)"/>
<path d="M252 32C252 30.8954 251.105 30 250 30C248.895 30 248 30.8954 248 32V165C248 166.105 248.895 167 250 167C251.105 167 252 166.105 252 165V32Z" fill="url(#paint40_linear_472_2018)"/>
<path d="M242 32C242 30.8954 241.105 30 240 30C238.895 30 238 30.8954 238 32V165C238 166.105 238.895 167 240 167C241.105 167 242 166.105 242 165V32Z" fill="url(#paint41_linear_472_2018)"/>
<path d="M612 52C612 50.8954 611.105 50 610 50C608.895 50 608 50.8954 608 52V185C608 186.105 608.895 187 610 187C611.105 187 612 186.105 612 185V52Z" fill="url(#paint42_linear_472_2018)"/>
<path d="M622 52C622 50.8954 621.105 50 620 50C618.895 50 618 50.8954 618 52V185C618 186.105 618.895 187 620 187C621.105 187 622 186.105 622 185V52Z" fill="url(#paint43_linear_472_2018)"/>
<path d="M602 52C602 50.8954 601.105 50 600 50C598.895 50 598 50.8954 598 52V185C598 186.105 598.895 187 600 187C601.105 187 602 186.105 602 185V52Z" fill="url(#paint44_linear_472_2018)"/>
<path d="M632 62C632 60.8954 631.105 60 630 60C628.895 60 628 60.8954 628 62V195C628 196.105 628.895 197 630 197C631.105 197 632 196.105 632 195V62Z" fill="url(#paint45_linear_472_2018)"/>
<path d="M592 52C592 50.8954 591.105 50 590 50C588.895 50 588 50.8954 588 52V185C588 186.105 588.895 187 590 187C591.105 187 592 186.105 592 185V52Z" fill="url(#paint46_linear_472_2018)"/>
<path d="M582 43C582 41.8954 581.105 41 580 41C578.895 41 578 41.8954 578 43V176C578 177.105 578.895 178 580 178C581.105 178 582 177.105 582 176V43Z" fill="url(#paint47_linear_472_2018)"/>
<path d="M572 52C572 50.8954 571.105 50 570 50C568.895 50 568 50.8954 568 52V185C568 186.105 568.895 187 570 187C571.105 187 572 186.105 572 185V52Z" fill="url(#paint48_linear_472_2018)"/>
<path d="M562 62C562 60.8954 561.105 60 560 60C558.895 60 558 60.8954 558 62V195C558 196.105 558.895 197 560 197C561.105 197 562 196.105 562 195V62Z" fill="url(#paint49_linear_472_2018)"/>
<path d="M552 62C552 60.8954 551.105 60 550 60C548.895 60 548 60.8954 548 62V195C548 196.105 548.895 197 550 197C551.105 197 552 196.105 552 195V62Z" fill="url(#paint50_linear_472_2018)"/>
<path d="M542 52C542 50.8954 541.105 50 540 50C538.895 50 538 50.8954 538 52V185C538 186.105 538.895 187 540 187C541.105 187 542 186.105 542 185V52Z" fill="url(#paint51_linear_472_2018)"/>
<path d="M532 62C532 60.8954 531.105 60 530 60C528.895 60 528 60.8954 528 62V195C528 196.105 528.895 197 530 197C531.105 197 532 196.105 532 195V62Z" fill="url(#paint52_linear_472_2018)"/>
<path d="M522 72C522 70.8954 521.105 70 520 70C518.895 70 518 70.8954 518 72V205C518 206.105 518.895 207 520 207C521.105 207 522 206.105 522 205V72Z" fill="url(#paint53_linear_472_2018)"/>
<path d="M512 72C512 70.8954 511.105 70 510 70C508.895 70 508 70.8954 508 72V205C508 206.105 508.895 207 510 207C511.105 207 512 206.105 512 205V72Z" fill="url(#paint54_linear_472_2018)"/>
<path d="M502 82C502 80.8954 501.105 80 500 80C498.895 80 498 80.8954 498 82V215C498 216.105 498.895 217 500 217C501.105 217 502 216.105 502 215V82Z" fill="url(#paint55_linear_472_2018)"/>
<path d="M492 72C492 70.8954 491.105 70 490 70C488.895 70 488 70.8954 488 72V205C488 206.105 488.895 207 490 207C491.105 207 492 206.105 492 205V72Z" fill="url(#paint56_linear_472_2018)"/>
<path d="M482 62C482 60.8954 481.105 60 480 60C478.895 60 478 60.8954 478 62V195C478 196.105 478.895 197 480 197C481.105 197 482 196.105 482 195V62Z" fill="url(#paint57_linear_472_2018)"/>
<path d="M472 72C472 70.8954 471.105 70 470 70C468.895 70 468 70.8954 468 72V205C468 206.105 468.895 207 470 207C471.105 207 472 206.105 472 205V72Z" fill="url(#paint58_linear_472_2018)"/>
<path d="M462 62C462 60.8954 461.105 60 460 60C458.895 60 458 60.8954 458 62V195C458 196.105 458.895 197 460 197C461.105 197 462 196.105 462 195V62Z" fill="url(#paint59_linear_472_2018)"/>
<path d="M762 43C762 41.8954 761.105 41 760 41C758.895 41 758 41.8954 758 43V176C758 177.105 758.895 178 760 178C761.105 178 762 177.105 762 176V43Z" fill="url(#paint60_linear_472_2018)"/>
<path d="M752 52C752 50.8954 751.105 50 750 50C748.895 50 748 50.8954 748 52V185C748 186.105 748.895 187 750 187C751.105 187 752 186.105 752 185V52Z" fill="url(#paint61_linear_472_2018)"/>
<path d="M742 62C742 60.8954 741.105 60 740 60C738.895 60 738 60.8954 738 62V195C738 196.105 738.895 197 740 197C741.105 197 742 196.105 742 195V62Z" fill="url(#paint62_linear_472_2018)"/>
<path d="M732 62C732 60.8954 731.105 60 730 60C728.895 60 728 60.8954 728 62V195C728 196.105 728.895 197 730 197C731.105 197 732 196.105 732 195V62Z" fill="url(#paint63_linear_472_2018)"/>
<path d="M722 52C722 50.8954 721.105 50 720 50C718.895 50 718 50.8954 718 52V185C718 186.105 718.895 187 720 187C721.105 187 722 186.105 722 185V52Z" fill="url(#paint64_linear_472_2018)"/>
<path d="M712 62C712 60.8954 711.105 60 710 60C708.895 60 708 60.8954 708 62V195C708 196.105 708.895 197 710 197C711.105 197 712 196.105 712 195V62Z" fill="url(#paint65_linear_472_2018)"/>
<path d="M702 72C702 70.8954 701.105 70 700 70C698.895 70 698 70.8954 698 72V205C698 206.105 698.895 207 700 207C701.105 207 702 206.105 702 205V72Z" fill="url(#paint66_linear_472_2018)"/>
<path d="M692 72C692 70.8954 691.105 70 690 70C688.895 70 688 70.8954 688 72V205C688 206.105 688.895 207 690 207C691.105 207 692 206.105 692 205V72Z" fill="url(#paint67_linear_472_2018)"/>
<path d="M682 82C682 80.8954 681.105 80 680 80C678.895 80 678 80.8954 678 82V215C678 216.105 678.895 217 680 217C681.105 217 682 216.105 682 215V82Z" fill="url(#paint68_linear_472_2018)"/>
<path d="M672 72C672 70.8954 671.105 70 670 70C668.895 70 668 70.8954 668 72V205C668 206.105 668.895 207 670 207C671.105 207 672 206.105 672 205V72Z" fill="url(#paint69_linear_472_2018)"/>
<path d="M662 62C662 60.8954 661.105 60 660 60C658.895 60 658 60.8954 658 62V195C658 196.105 658.895 197 660 197C661.105 197 662 196.105 662 195V62Z" fill="url(#paint70_linear_472_2018)"/>
<path d="M652 72C652 70.8954 651.105 70 650 70C648.895 70 648 70.8954 648 72V205C648 206.105 648.895 207 650 207C651.105 207 652 206.105 652 205V72Z" fill="url(#paint71_linear_472_2018)"/>
<path d="M642 62C642 60.8954 641.105 60 640 60C638.895 60 638 60.8954 638 62V195C638 196.105 638.895 197 640 197C641.105 197 642 196.105 642 195V62Z" fill="url(#paint72_linear_472_2018)"/>
<path d="M452 52C452 50.8954 451.105 50 450 50C448.895 50 448 50.8954 448 52V185C448 186.105 448.895 187 450 187C451.105 187 452 186.105 452 185V52Z" fill="url(#paint73_linear_472_2018)"/>
<path d="M442 52C442 50.8954 441.105 50 440 50C438.895 50 438 50.8954 438 52V185C438 186.105 438.895 187 440 187C441.105 187 442 186.105 442 185V52Z" fill="url(#paint74_linear_472_2018)"/>
<path d="M232 22C232 20.8954 231.105 20 230 20C228.895 20 228 20.8954 228 22V155C228 156.105 228.895 157 230 157C231.105 157 232 156.105 232 155V22Z" fill="url(#paint75_linear_472_2018)"/>
<path d="M222 32C222 30.8954 221.105 30 220 30C218.895 30 218 30.8954 218 32V165C218 166.105 218.895 167 220 167C221.105 167 222 166.105 222 165V32Z" fill="url(#paint76_linear_472_2018)"/>
</g>
<defs>
<linearGradient id="paint0_linear_472_2018" x1="388.17" y1="525" x2="-11.4617" y2="13687.9" gradientUnits="userSpaceOnUse">
<stop stop-color="#08CEA4"/>
<stop offset="1" stop-color="#C0FECF" stop-opacity="0"/>
</linearGradient>
<linearGradient id="paint1_linear_472_2018" x1="398.17" y1="535" x2="-1.46172" y2="13697.9" gradientUnits="userSpaceOnUse">
<stop stop-color="#08CEA4"/>
<stop offset="1" stop-color="#C0FECF" stop-opacity="0"/>
</linearGradient>
<linearGradient id="paint2_linear_472_2018" x1="378.17" y1="535" x2="-21.4617" y2="13697.9" gradientUnits="userSpaceOnUse">
<stop stop-color="#08CEA4"/>
<stop offset="1" stop-color="#C0FECF" stop-opacity="0"/>
</linearGradient>
<linearGradient id="paint3_linear_472_2018" x1="408.17" y1="545" x2="8.53828" y2="13707.9" gradientUnits="userSpaceOnUse">
<stop stop-color="#08CEA4"/>
<stop offset="1" stop-color="#C0FECF" stop-opacity="0"/>
</linearGradient>
<linearGradient id="paint4_linear_472_2018" x1="368.17" y1="545" x2="-31.4617" y2="13707.9" gradientUnits="userSpaceOnUse">
<stop stop-color="#08CEA4"/>
<stop offset="1" stop-color="#C0FECF" stop-opacity="0"/>
</linearGradient>
<linearGradient id="paint5_linear_472_2018" x1="358.17" y1="535" x2="-41.4617" y2="13697.9" gradientUnits="userSpaceOnUse">
<stop stop-color="#08CEA4"/>
<stop offset="1" stop-color="#C0FECF" stop-opacity="0"/>
</linearGradient>
<linearGradient id="paint6_linear_472_2018" x1="348.17" y1="545" x2="-51.4617" y2="13707.9" gradientUnits="userSpaceOnUse">
<stop stop-color="#08CEA4"/>
<stop offset="1" stop-color="#C0FECF" stop-opacity="0"/>
</linearGradient>
<linearGradient id="paint7_linear_472_2018" x1="338.17" y1="555" x2="-61.4617" y2="13717.9" gradientUnits="userSpaceOnUse">
<stop stop-color="#08CEA4"/>
<stop offset="1" stop-color="#C0FECF" stop-opacity="0"/>
</linearGradient>
<linearGradient id="paint8_linear_472_2018" x1="328.17" y1="565" x2="-71.4617" y2="13727.9" gradientUnits="userSpaceOnUse">
<stop stop-color="#08CEA4"/>
<stop offset="1" stop-color="#C0FECF" stop-opacity="0"/>
</linearGradient>
<linearGradient id="paint9_linear_472_2018" x1="318.17" y1="555" x2="-81.4617" y2="13717.9" gradientUnits="userSpaceOnUse">
<stop stop-color="#08CEA4"/>
<stop offset="1" stop-color="#C0FECF" stop-opacity="0"/>
</linearGradient>
<linearGradient id="paint10_linear_472_2018" x1="308.17" y1="565" x2="-91.4617" y2="13727.9" gradientUnits="userSpaceOnUse">
<stop stop-color="#08CEA4"/>
<stop offset="1" stop-color="#C0FECF" stop-opacity="0"/>
</linearGradient>
<linearGradient id="paint11_linear_472_2018" x1="298.17" y1="575" x2="-101.462" y2="13737.9" gradientUnits="userSpaceOnUse">
<stop stop-color="#08CEA4"/>
<stop offset="1" stop-color="#C0FECF" stop-opacity="0"/>
</linearGradient>
<linearGradient id="paint12_linear_472_2018" x1="288.17" y1="585" x2="-111.462" y2="13747.9" gradientUnits="userSpaceOnUse">
<stop stop-color="#08CEA4"/>
<stop offset="1" stop-color="#C0FECF" stop-opacity="0"/>
</linearGradient>
<linearGradient id="paint13_linear_472_2018" x1="278.17" y1="595" x2="-121.462" y2="13757.9" gradientUnits="userSpaceOnUse">
<stop stop-color="#08CEA4"/>
<stop offset="1" stop-color="#C0FECF" stop-opacity="0"/>
</linearGradient>
<linearGradient id="paint14_linear_472_2018" x1="268.17" y1="585" x2="-131.462" y2="13747.9" gradientUnits="userSpaceOnUse">
<stop stop-color="#08CEA4"/>
<stop offset="1" stop-color="#C0FECF" stop-opacity="0"/>
</linearGradient>
<linearGradient id="paint15_linear_472_2018" x1="258.17" y1="575" x2="-141.462" y2="13737.9" gradientUnits="userSpaceOnUse">
<stop stop-color="#08CEA4"/>
<stop offset="1" stop-color="#C0FECF" stop-opacity="0"/>
</linearGradient>
<linearGradient id="paint16_linear_472_2018" x1="248.17" y1="585" x2="-151.462" y2="13747.9" gradientUnits="userSpaceOnUse">
<stop stop-color="#08CEA4"/>
<stop offset="1" stop-color="#C0FECF" stop-opacity="0"/>
</linearGradient>
<linearGradient id="paint17_linear_472_2018" x1="238.17" y1="575" x2="-161.462" y2="13737.9" gradientUnits="userSpaceOnUse">
<stop stop-color="#08CEA4"/>
<stop offset="1" stop-color="#C0FECF" stop-opacity="0"/>
</linearGradient>
<linearGradient id="paint18_linear_472_2018" x1="228.17" y1="565" x2="-171.462" y2="13727.9" gradientUnits="userSpaceOnUse">
<stop stop-color="#08CEA4"/>
<stop offset="1" stop-color="#C0FECF" stop-opacity="0"/>
</linearGradient>
<linearGradient id="paint19_linear_472_2018" x1="218.17" y1="555" x2="-181.462" y2="13717.9" gradientUnits="userSpaceOnUse">
<stop stop-color="#08CEA4"/>
<stop offset="1" stop-color="#C0FECF" stop-opacity="0"/>
</linearGradient>
<linearGradient id="paint20_linear_472_2018" x1="208.17" y1="565" x2="-191.462" y2="13727.9" gradientUnits="userSpaceOnUse">
<stop stop-color="#08CEA4"/>
<stop offset="1" stop-color="#C0FECF" stop-opacity="0"/>
</linearGradient>
<linearGradient id="paint21_linear_472_2018" x1="198.17" y1="575" x2="-201.462" y2="13737.9" gradientUnits="userSpaceOnUse">
<stop stop-color="#08CEA4"/>
<stop offset="1" stop-color="#C0FECF" stop-opacity="0"/>
</linearGradient>
<linearGradient id="paint22_linear_472_2018" x1="608.17" y1="545" x2="208.538" y2="13707.9" gradientUnits="userSpaceOnUse">
<stop stop-color="#08CEA4"/>
<stop offset="1" stop-color="#C0FECF" stop-opacity="0"/>
</linearGradient>
<linearGradient id="paint23_linear_472_2018" x1="618.17" y1="555" x2="218.538" y2="13717.9" gradientUnits="userSpaceOnUse">
<stop stop-color="#08CEA4"/>
<stop offset="1" stop-color="#C0FECF" stop-opacity="0"/>
</linearGradient>
<linearGradient id="paint24_linear_472_2018" x1="598.17" y1="545" x2="198.538" y2="13707.9" gradientUnits="userSpaceOnUse">
<stop stop-color="#08CEA4"/>
<stop offset="1" stop-color="#C0FECF" stop-opacity="0"/>
</linearGradient>
<linearGradient id="paint25_linear_472_2018" x1="628.17" y1="565" x2="228.538" y2="13727.9" gradientUnits="userSpaceOnUse">
<stop stop-color="#08CEA4"/>
<stop offset="1" stop-color="#C0FECF" stop-opacity="0"/>
</linearGradient>
<linearGradient id="paint26_linear_472_2018" x1="588.17" y1="555" x2="188.538" y2="13717.9" gradientUnits="userSpaceOnUse">
<stop stop-color="#08CEA4"/>
<stop offset="1" stop-color="#C0FECF" stop-opacity="0"/>
</linearGradient>
<linearGradient id="paint27_linear_472_2018" x1="578.17" y1="545" x2="178.538" y2="13707.9" gradientUnits="userSpaceOnUse">
<stop stop-color="#08CEA4"/>
<stop offset="1" stop-color="#C0FECF" stop-opacity="0"/>
</linearGradient>
<linearGradient id="paint28_linear_472_2018" x1="568.17" y1="555" x2="168.538" y2="13717.9" gradientUnits="userSpaceOnUse">
<stop stop-color="#08CEA4"/>
<stop offset="1" stop-color="#C0FECF" stop-opacity="0"/>
</linearGradient>
<linearGradient id="paint29_linear_472_2018" x1="558.17" y1="565" x2="158.538" y2="13727.9" gradientUnits="userSpaceOnUse">
<stop stop-color="#08CEA4"/>
<stop offset="1" stop-color="#C0FECF" stop-opacity="0"/>
</linearGradient>
<linearGradient id="paint30_linear_472_2018" x1="548.17" y1="565" x2="148.538" y2="13727.9" gradientUnits="userSpaceOnUse">
<stop stop-color="#08CEA4"/>
<stop offset="1" stop-color="#C0FECF" stop-opacity="0"/>
</linearGradient>
<linearGradient id="paint31_linear_472_2018" x1="538.17" y1="555" x2="138.538" y2="13717.9" gradientUnits="userSpaceOnUse">
<stop stop-color="#08CEA4"/>
<stop offset="1" stop-color="#C0FECF" stop-opacity="0"/>
</linearGradient>
<linearGradient id="paint32_linear_472_2018" x1="528.17" y1="565" x2="128.538" y2="13727.9" gradientUnits="userSpaceOnUse">
<stop stop-color="#08CEA4"/>
<stop offset="1" stop-color="#C0FECF" stop-opacity="0"/>
</linearGradient>
<linearGradient id="paint33_linear_472_2018" x1="518.17" y1="575" x2="118.538" y2="13737.9" gradientUnits="userSpaceOnUse">
<stop stop-color="#08CEA4"/>
<stop offset="1" stop-color="#C0FECF" stop-opacity="0"/>
</linearGradient>
<linearGradient id="paint34_linear_472_2018" x1="508.17" y1="575" x2="108.538" y2="13737.9" gradientUnits="userSpaceOnUse">
<stop stop-color="#08CEA4"/>
<stop offset="1" stop-color="#C0FECF" stop-opacity="0"/>
</linearGradient>
<linearGradient id="paint35_linear_472_2018" x1="498.17" y1="585" x2="98.5383" y2="13747.9" gradientUnits="userSpaceOnUse">
<stop stop-color="#08CEA4"/>
<stop offset="1" stop-color="#C0FECF" stop-opacity="0"/>
</linearGradient>
<linearGradient id="paint36_linear_472_2018" x1="488.17" y1="575" x2="88.5383" y2="13737.9" gradientUnits="userSpaceOnUse">
<stop stop-color="#08CEA4"/>
<stop offset="1" stop-color="#C0FECF" stop-opacity="0"/>
</linearGradient>
<linearGradient id="paint37_linear_472_2018" x1="478.17" y1="565" x2="78.5383" y2="13727.9" gradientUnits="userSpaceOnUse">
<stop stop-color="#08CEA4"/>
<stop offset="1" stop-color="#C0FECF" stop-opacity="0"/>
</linearGradient>
<linearGradient id="paint38_linear_472_2018" x1="468.17" y1="575" x2="68.5383" y2="13737.9" gradientUnits="userSpaceOnUse">
<stop stop-color="#08CEA4"/>
<stop offset="1" stop-color="#C0FECF" stop-opacity="0"/>
</linearGradient>
<linearGradient id="paint39_linear_472_2018" x1="458.17" y1="565" x2="58.5383" y2="13727.9" gradientUnits="userSpaceOnUse">
<stop stop-color="#08CEA4"/>
<stop offset="1" stop-color="#C0FECF" stop-opacity="0"/>
</linearGradient>
<linearGradient id="paint40_linear_472_2018" x1="448.17" y1="555" x2="48.5383" y2="13717.9" gradientUnits="userSpaceOnUse">
<stop stop-color="#08CEA4"/>
<stop offset="1" stop-color="#C0FECF" stop-opacity="0"/>
</linearGradient>
<linearGradient id="paint41_linear_472_2018" x1="438.17" y1="555" x2="38.5383" y2="13717.9" gradientUnits="userSpaceOnUse">
<stop stop-color="#08CEA4"/>
<stop offset="1" stop-color="#C0FECF" stop-opacity="0"/>
</linearGradient>
<linearGradient id="paint42_linear_472_2018" x1="808.17" y1="575" x2="408.538" y2="13737.9" gradientUnits="userSpaceOnUse">
<stop stop-color="#08CEA4"/>
<stop offset="1" stop-color="#C0FECF" stop-opacity="0"/>
</linearGradient>
<linearGradient id="paint43_linear_472_2018" x1="818.17" y1="575" x2="418.538" y2="13737.9" gradientUnits="userSpaceOnUse">
<stop stop-color="#08CEA4"/>
<stop offset="1" stop-color="#C0FECF" stop-opacity="0"/>
</linearGradient>
<linearGradient id="paint44_linear_472_2018" x1="798.17" y1="575" x2="398.538" y2="13737.9" gradientUnits="userSpaceOnUse">
<stop stop-color="#08CEA4"/>
<stop offset="1" stop-color="#C0FECF" stop-opacity="0"/>
</linearGradient>
<linearGradient id="paint45_linear_472_2018" x1="828.17" y1="585" x2="428.538" y2="13747.9" gradientUnits="userSpaceOnUse">
<stop stop-color="#08CEA4"/>
<stop offset="1" stop-color="#C0FECF" stop-opacity="0"/>
</linearGradient>
<linearGradient id="paint46_linear_472_2018" x1="788.17" y1="575" x2="388.538" y2="13737.9" gradientUnits="userSpaceOnUse">
<stop stop-color="#08CEA4"/>
<stop offset="1" stop-color="#C0FECF" stop-opacity="0"/>
</linearGradient>
<linearGradient id="paint47_linear_472_2018" x1="778.17" y1="566" x2="378.538" y2="13728.9" gradientUnits="userSpaceOnUse">
<stop stop-color="#08CEA4"/>
<stop offset="1" stop-color="#C0FECF" stop-opacity="0"/>
</linearGradient>
<linearGradient id="paint48_linear_472_2018" x1="768.17" y1="575" x2="368.538" y2="13737.9" gradientUnits="userSpaceOnUse">
<stop stop-color="#08CEA4"/>
<stop offset="1" stop-color="#C0FECF" stop-opacity="0"/>
</linearGradient>
<linearGradient id="paint49_linear_472_2018" x1="758.17" y1="585" x2="358.538" y2="13747.9" gradientUnits="userSpaceOnUse">
<stop stop-color="#08CEA4"/>
<stop offset="1" stop-color="#C0FECF" stop-opacity="0"/>
</linearGradient>
<linearGradient id="paint50_linear_472_2018" x1="748.17" y1="585" x2="348.538" y2="13747.9" gradientUnits="userSpaceOnUse">
<stop stop-color="#08CEA4"/>
<stop offset="1" stop-color="#C0FECF" stop-opacity="0"/>
</linearGradient>
<linearGradient id="paint51_linear_472_2018" x1="738.17" y1="575" x2="338.538" y2="13737.9" gradientUnits="userSpaceOnUse">
<stop stop-color="#08CEA4"/>
<stop offset="1" stop-color="#C0FECF" stop-opacity="0"/>
</linearGradient>
<linearGradient id="paint52_linear_472_2018" x1="728.17" y1="585" x2="328.538" y2="13747.9" gradientUnits="userSpaceOnUse">
<stop stop-color="#08CEA4"/>
<stop offset="1" stop-color="#C0FECF" stop-opacity="0"/>
</linearGradient>
<linearGradient id="paint53_linear_472_2018" x1="718.17" y1="595" x2="318.538" y2="13757.9" gradientUnits="userSpaceOnUse">
<stop stop-color="#08CEA4"/>
<stop offset="1" stop-color="#C0FECF" stop-opacity="0"/>
</linearGradient>
<linearGradient id="paint54_linear_472_2018" x1="708.17" y1="595" x2="308.538" y2="13757.9" gradientUnits="userSpaceOnUse">
<stop stop-color="#08CEA4"/>
<stop offset="1" stop-color="#C0FECF" stop-opacity="0"/>
</linearGradient>
<linearGradient id="paint55_linear_472_2018" x1="698.17" y1="605" x2="298.538" y2="13767.9" gradientUnits="userSpaceOnUse">
<stop stop-color="#08CEA4"/>
<stop offset="1" stop-color="#C0FECF" stop-opacity="0"/>
</linearGradient>
<linearGradient id="paint56_linear_472_2018" x1="688.17" y1="595" x2="288.538" y2="13757.9" gradientUnits="userSpaceOnUse">
<stop stop-color="#08CEA4"/>
<stop offset="1" stop-color="#C0FECF" stop-opacity="0"/>
</linearGradient>
<linearGradient id="paint57_linear_472_2018" x1="678.17" y1="585" x2="278.538" y2="13747.9" gradientUnits="userSpaceOnUse">
<stop stop-color="#08CEA4"/>
<stop offset="1" stop-color="#C0FECF" stop-opacity="0"/>
</linearGradient>
<linearGradient id="paint58_linear_472_2018" x1="668.17" y1="595" x2="268.538" y2="13757.9" gradientUnits="userSpaceOnUse">
<stop stop-color="#08CEA4"/>
<stop offset="1" stop-color="#C0FECF" stop-opacity="0"/>
</linearGradient>
<linearGradient id="paint59_linear_472_2018" x1="658.17" y1="585" x2="258.538" y2="13747.9" gradientUnits="userSpaceOnUse">
<stop stop-color="#08CEA4"/>
<stop offset="1" stop-color="#C0FECF" stop-opacity="0"/>
</linearGradient>
<linearGradient id="paint60_linear_472_2018" x1="958.17" y1="566" x2="558.538" y2="13728.9" gradientUnits="userSpaceOnUse">
<stop stop-color="#08CEA4"/>
<stop offset="1" stop-color="#C0FECF" stop-opacity="0"/>
</linearGradient>
<linearGradient id="paint61_linear_472_2018" x1="948.17" y1="575" x2="548.538" y2="13737.9" gradientUnits="userSpaceOnUse">
<stop stop-color="#08CEA4"/>
<stop offset="1" stop-color="#C0FECF" stop-opacity="0"/>
</linearGradient>
<linearGradient id="paint62_linear_472_2018" x1="938.17" y1="585" x2="538.538" y2="13747.9" gradientUnits="userSpaceOnUse">
<stop stop-color="#08CEA4"/>
<stop offset="1" stop-color="#C0FECF" stop-opacity="0"/>
</linearGradient>
<linearGradient id="paint63_linear_472_2018" x1="928.17" y1="585" x2="528.538" y2="13747.9" gradientUnits="userSpaceOnUse">
<stop stop-color="#08CEA4"/>
<stop offset="1" stop-color="#C0FECF" stop-opacity="0"/>
</linearGradient>
<linearGradient id="paint64_linear_472_2018" x1="918.17" y1="575" x2="518.538" y2="13737.9" gradientUnits="userSpaceOnUse">
<stop stop-color="#08CEA4"/>
<stop offset="1" stop-color="#C0FECF" stop-opacity="0"/>
</linearGradient>
<linearGradient id="paint65_linear_472_2018" x1="908.17" y1="585" x2="508.538" y2="13747.9" gradientUnits="userSpaceOnUse">
<stop stop-color="#08CEA4"/>
<stop offset="1" stop-color="#C0FECF" stop-opacity="0"/>
</linearGradient>
<linearGradient id="paint66_linear_472_2018" x1="898.17" y1="595" x2="498.538" y2="13757.9" gradientUnits="userSpaceOnUse">
<stop stop-color="#08CEA4"/>
<stop offset="1" stop-color="#C0FECF" stop-opacity="0"/>
</linearGradient>
<linearGradient id="paint67_linear_472_2018" x1="888.17" y1="595" x2="488.538" y2="13757.9" gradientUnits="userSpaceOnUse">
<stop stop-color="#08CEA4"/>
<stop offset="1" stop-color="#C0FECF" stop-opacity="0"/>
</linearGradient>
<linearGradient id="paint68_linear_472_2018" x1="878.17" y1="605" x2="478.538" y2="13767.9" gradientUnits="userSpaceOnUse">
<stop stop-color="#08CEA4"/>
<stop offset="1" stop-color="#C0FECF" stop-opacity="0"/>
</linearGradient>
<linearGradient id="paint69_linear_472_2018" x1="868.17" y1="595" x2="468.538" y2="13757.9" gradientUnits="userSpaceOnUse">
<stop stop-color="#08CEA4"/>
<stop offset="1" stop-color="#C0FECF" stop-opacity="0"/>
</linearGradient>
<linearGradient id="paint70_linear_472_2018" x1="858.17" y1="585" x2="458.538" y2="13747.9" gradientUnits="userSpaceOnUse">
<stop stop-color="#08CEA4"/>
<stop offset="1" stop-color="#C0FECF" stop-opacity="0"/>
</linearGradient>
<linearGradient id="paint71_linear_472_2018" x1="848.17" y1="595" x2="448.538" y2="13757.9" gradientUnits="userSpaceOnUse">
<stop stop-color="#08CEA4"/>
<stop offset="1" stop-color="#C0FECF" stop-opacity="0"/>
</linearGradient>
<linearGradient id="paint72_linear_472_2018" x1="838.17" y1="585" x2="438.538" y2="13747.9" gradientUnits="userSpaceOnUse">
<stop stop-color="#08CEA4"/>
<stop offset="1" stop-color="#C0FECF" stop-opacity="0"/>
</linearGradient>
<linearGradient id="paint73_linear_472_2018" x1="648.17" y1="575" x2="248.538" y2="13737.9" gradientUnits="userSpaceOnUse">
<stop stop-color="#08CEA4"/>
<stop offset="1" stop-color="#C0FECF" stop-opacity="0"/>
</linearGradient>
<linearGradient id="paint74_linear_472_2018" x1="638.17" y1="575" x2="238.538" y2="13737.9" gradientUnits="userSpaceOnUse">
<stop stop-color="#08CEA4"/>
<stop offset="1" stop-color="#C0FECF" stop-opacity="0"/>
</linearGradient>
<linearGradient id="paint75_linear_472_2018" x1="428.17" y1="545" x2="28.5383" y2="13707.9" gradientUnits="userSpaceOnUse">
<stop stop-color="#08CEA4"/>
<stop offset="1" stop-color="#C0FECF" stop-opacity="0"/>
</linearGradient>
<linearGradient id="paint76_linear_472_2018" x1="418.17" y1="555" x2="18.5383" y2="13717.9" gradientUnits="userSpaceOnUse">
<stop stop-color="#08CEA4"/>
<stop offset="1" stop-color="#C0FECF" stop-opacity="0"/>
</linearGradient>
<clipPath id="clip0_472_2018">
<rect width="1394" height="257" fill="white" transform="translate(-2)"/>
</clipPath>
</defs>
</svg>
